/* XPM */
static char *_ccad9a27c43435ec3ab265c2b403501I1QuTezOL9of02tm[] = {
/* columns rows colors chars-per-pixel */
"87 87 197 2 ",
"   c #2C0101",
".  c #350201",
"X  c #3C0202",
"o  c #440202",
"O  c #4C0303",
"+  c #4E0807",
"@  c #450308",
"#  c #470A0A",
"$  c #4C0A09",
"%  c #540304",
"&  c #5B0404",
"*  c #550907",
"=  c #5C0806",
"-  c #540509",
";  c #5B0509",
":  c #540909",
">  c #5C0A0A",
",  c #55110F",
"<  c #5D100E",
"1  c #640405",
"2  c #6B0405",
"3  c #640906",
"4  c #6C0A06",
"5  c #640609",
"6  c #6C0609",
"7  c #640B0B",
"8  c #6C0B0B",
"9  c #730505",
"0  c #7C0505",
"q  c #740906",
"w  c #7C0906",
"e  c #74060A",
"r  c #7B0609",
"t  c #730B0B",
"y  c #7C0B0B",
"u  c #65110E",
"i  c #6B110F",
"p  c #73110D",
"a  c #7C110E",
"s  c #640E11",
"d  c #6C0E11",
"f  c #740D11",
"g  c #7C0E11",
"h  c #641312",
"j  c #6C1213",
"k  c #651815",
"l  c #6E1917",
"z  c #6B1E1C",
"x  c #741313",
"c  c #7C1312",
"v  c #741815",
"b  c #7B1917",
"n  c #7C1618",
"m  c #751B1A",
"M  c #7D1C1B",
"N  c #74201F",
"B  c #7E231C",
"V  c #7E2321",
"C  c #830505",
"Z  c #8B0605",
"A  c #840906",
"S  c #8B0906",
"D  c #830609",
"F  c #8B0609",
"G  c #840B0B",
"H  c #8B0C0B",
"J  c #930605",
"K  c #930A06",
"L  c #990807",
"P  c #930709",
"I  c #930D0C",
"U  c #9A0D0C",
"Y  c #84110E",
"T  c #87120E",
"R  c #89120D",
"E  c #8C110E",
"W  c #921107",
"Q  c #94110D",
"!  c #96110D",
"~  c #9A120E",
"^  c #840E11",
"/  c #8C0E11",
"(  c #940F10",
")  c #940E11",
"_  c #9B0E11",
"`  c #841313",
"'  c #841714",
"]  c #8C1313",
"[  c #831811",
"{  c #851A16",
"}  c #8D1916",
"|  c #821719",
" . c #8C1519",
".. c #841C1B",
"X. c #8C1B1B",
"o. c #931211",
"O. c #931413",
"+. c #961715",
"@. c #9A1111",
"#. c #9F1212",
"$. c #9B1413",
"%. c #9B1314",
"&. c #9D1616",
"*. c #941915",
"=. c #9B1916",
"-. c #9C1816",
";. c #941519",
":. c #9C1619",
">. c #941B1B",
",. c #971C19",
"<. c #9C1B1B",
"1. c #981C1B",
"2. c #A30D0E",
"3. c #A3130D",
"4. c #A10F11",
"5. c #A01314",
"6. c #A31514",
"7. c #A91412",
"8. c #A21A16",
"9. c #A51915",
"0. c #AB1B15",
"q. c #A21719",
"w. c #A01C18",
"e. c #A21C1B",
"r. c #A3191C",
"t. c #AA1D1D",
"y. c #B11C16",
"u. c #82211B",
"i. c #8C231C",
"p. c #8C221D",
"a. c #95211D",
"s. c #9C221E",
"d. c #A02017",
"f. c #AB2015",
"g. c #A3221E",
"h. c #AB221E",
"j. c #BD281D",
"k. c #8A1B21",
"l. c #931720",
"z. c #931E22",
"x. c #9C1E21",
"c. c #A31E20",
"v. c #A91F21",
"b. c #852322",
"n. c #8B2321",
"m. c #8B2926",
"M. c #842C29",
"N. c #8B2D2C",
"B. c #932423",
"V. c #9C2323",
"C. c #952825",
"Z. c #9B2A26",
"A. c #9A2628",
"S. c #942B2A",
"D. c #9D2C2B",
"F. c #94332F",
"G. c #9D332F",
"H. c #8E3131",
"J. c #943436",
"K. c #9B3434",
"L. c #A42423",
"P. c #AB2423",
"I. c #A42A26",
"U. c #AB2A26",
"Y. c #A42628",
"T. c #AC2729",
"R. c #A42C2B",
"E. c #AC2C2A",
"W. c #B22524",
"Q. c #B22A26",
"!. c #B92923",
"~. c #B0272D",
"^. c #B22D2C",
"/. c #B82E2E",
"(. c #A4322D",
"). c #AC322D",
"_. c #B2312D",
"`. c #B8342F",
"'. c #AA2F31",
"]. c #B02E30",
"[. c #A53432",
"{. c #AC3432",
"}. c #A53834",
"|. c #AB3935",
" X c #B43433",
".X c #B93334",
"XX c #B33935",
"oX c #B93A36",
"OX c #BA3639",
"+X c #B43D39",
"@X c #BA3D3B",
"#X c #C13F3C",
"$X c #AE413B",
"%X c #B2423B",
"&X c #BA433D",
"*X c #C14742",
"=X c #C25047",
/* pixels */
"2 9 C 9 0 0 1 & O . e I K P 5.#.$.e 1 #.@.I Q L o.I H & 9 1 O o X 1 & 5 O 2 I F Z 0 0 1 y 8.L T 0 %.9.9.A 1 G +.H Q ] +.1 H I 9.&.8 o ;.&.>.] G F O y &.q.v.I e.o.F & A P.~ J ",
"y 0 9 & 9 & 2 9 & o F H -.I Z Q O.1 t -.S H Q H 5.U / O r y & O 3 & % O 5 C ) 0 H D C f 4 I T ' H I H ' & & y >.H Q H H 2 9.+.w 1 % o ;.q.9 & 2 r O H H I ] ` H o.%.8 q G F Z ",
"1 1 1 & & % % % O O 9 & 2 2 y 0 G % t G D G G w +.G r O & X . O & X X @ & 1 o O & & % O % & O % % & & % h 7 2 9 G ] 2 2 & q 1 & & 8 % M p $ % 1 & * 5 5 8 t e H A ` & q 9 1 2 ",
"1 & O . O h p t n e x B.t & O O = ; x f & & O & & % 3 1 q y 9 1 & % D *.s.T 9 % e 0 9 C Z I w 1 % % & & 6 9 2 1 % O & 8 p 2 4 w t w 0 T = 3 q e t a c 6 1 % % 9 0 >.R p  .0 i.",
"D 9 1 O C I Z A 2 q ` w 4 1 & D %.K &.) I r 2 F I F I ~ 3.L C C I q 0 +.9 C H % C F 0 9 J 9 9 9 e 1 o.L.F 9.W.t.` w 0 C F 9 0 9 0 0 F H % t K 6.5.q.#.K F e 9 I K A C +.<.Q 2.",
"+.0 e % D Z 0 9 r G 2 r 0 - & D o.I I I w O t I Q F I K ~ G C P Z 1 E *.C 5.H % 2 1 & e 0 1 9 D q & y @.F #.e.G c t r $.K Z 9 9 9 C +.r 6 1 H ~ H H S H r r 2 Z D 9 Z Q %.~ L ",
"r 2 6 & 0 y 9 ] O.Z ) +.r O q =.E I H I G O 3 &.I g.I C O.e C C 9 - O.O.] O.1 X 9 2 2 2 0 2 9 2 1 1 { q ] / ] G & 1 Z 9 2 2 1 & 2 0 y 6 & 1 ) ) I e t 8 & % 1 0 q D D  .q Q G ",
"O O % - r 2 % 5 - - 1 y 9 % 2 9 4 & 1 & O o 7 1 e 1 O 1 1 % O o O O e > O 1 O % 9 1 % % & & & O - 1 9 & o X O $ O 0 6 1 1 % & & 9 1 o o X % 6 > + . X X o o 1 6 & % % & 4 9 2 ",
"8 b c ` { t x & % X O 1 c ' a G & - - O > % 1 1 8 7 p e o o O - w A c e R ) ;.] 1 o O & w G  .' o.] G % q y { a r D q & O O 1 y ` e 7 8 n T 5 q ` G G ] H H ] y & 1 f 1 % % 7 ",
"O.Z n H ] D r 2 2 1 G :.O.H O.H & 1 0 H c.c.&.8.e.-.-.-.& & 9 o.Q I 0 G K 5.e.#.y e 1 r  .H D o.H F G % A S Z G H H 0 2 e 2 $.U 7.+.+.A H H 1 E e.:.o.#.=.=.$.H 2 D q 2 2 9 q.",
"D I @.$.w 9 9 & e 8 D 1 & 9 G r 6 % G _ +.Z H t.e.-.F H O & K C 2 0 2 2 H r.U.*.9 2 2 K Z K S H 0 C 2 & H <.o.w U *.H 9 2 2 K o.H H y G _ r 5 9 H F D g.o.1.I H 4 0 F F e e c.",
"+.' n f 1 1 1 r ` O D 2 8 w D 9 O - y I w T +.D q.-.] I O % e 0 Z 0 C C Q V.x 1 9 2 & r H I A A H I F 1 D G G y Z w 1 y e 1 +.+.:.F ] <.+.>.- 2 I e H e._ +.) 9 & 0 9 & O 1 ] ",
"% . X X o o 1 r 2 o 1 2 e 5 O O ; & & y 1 8 e q 9 1 ; e o O 2 0 r 9 2 t t 1 o o o O & 9 e 1 1 1 3 y 1 & 1 X o X o o o o O ; y 8 & t t v & % o e G T ] q 3 % 1 % & e & 5 X 1 9 ",
"1 9 2 O & ` H H  .<.`  .1 3 e t 8 D D c n S.H H 9 $ & 2 8 / H *.9 y y q % M } c a  .>.R ` >.c 5 O 8 c T 1.] ` O t M n.B./ ;.>.| | % 1 t ' ' X.] c 1 % 1 q c G a ] v & 2 6 e 9 ",
"A Z y o ] q.@. .&.Z C 0 & w D D I H O.c.<.o.0 F ) & 9 D y Z H F 0 C S A & q.I O.Z H &.@./ ] ) t % e._ _ ) D T O <.>.] x.H v.) ;.<.; H ~ K ~ Q #.q.G 1 O.#.I A H O.2 9 K A H H ",
"F D 1 o :.) D G G 2 r 2 o O.Z H <._ &.+.O.G ] I H % D P I q.5.#.e.5.G 8 O -.6 D G H 2 9 R H } % 1 I F I *.O.` O I.U.T.<.e.+.r / i.o r G -.o.G o.+.y & D $.I H e.I t 0 +.H o.A ",
"9 w - 1 -.^ / ) H 2 6 1 o ] F o.H I o.O.w ] H Z F & e S G ) / / T y & % O G H -.S +.+.~  .y a % ` I =.%.I @.^ O L.E.1.+.w ] :.:.<.% O.s.A q q *.' a & G I o.T @.$.] 2 1.G r C ",
"w 9 5 f y % e e 2 2 H 9 - / / D O.#.+.0 H O.] D ) & 2 6 ; & & 6 $ % ; @ o / ] I X.e w 2 6 p 2 O g L +.A +.] q O w [.>.D G <.A.o...o e D E / H ] *.D % y A y y t / e & G r C +.",
"O & 1 2 & 5 2 1 1 & e - 1 q O & 1 1 g 6 c x 2 g & O ; O X X O X . X . X O & 3 e 5 1 3 & % * 1 % t & & % O O . o - X X . o $ o o o o % j h & c 8 e 5 O e 0 a & 7 u O % ` ..& - ",
"2 2 0 C D 9 5 & % a t g ] I.L.R.A.` 6 & 9 G H w e { T e 5 & 1 6 & 2 9 q 9 & & 8 a y q Y 8 X & A D y y C D 9 & 1 1 & t q y G ] } O.E q o 1 8 2 a y w q 2 3 1 4 b n...Z.y G ' v ",
"9 9 2 9 1 O 5 1 a I K $.P.#XL.A.D y 9 O ) H H 9 9 H G H e 2 2 9 e q & 9 2 q & Z F H Z C 9 O C F Q H C Z F w 9 r & Z 5.Q ) C G G G H G % r y y w T 9 2 r & 2 =.K w.g.Q A +.+.o.",
"2 9 6 1 % % 2 - G 5.$.E.L.] t ; G 9 9 % 9 C y D Z 0 D O.& 9 9 9 r 1 2 1 9 & X H A w } R ` O H F I 0 0 Q G D A w O ] F A H C <.] T e 6 o e r 2 w G ` g 8 O 1 $.e.`.Q.W.6.@.@.I ",
"O o O O O O 1 O i ~ H 8 & % & 6 H 9 & 6 9 Q 0 C I H H G O 9 r r 2 1 2 2 & & . 2 e r C r y O G Z S w H Q E 0 y O o G y s.-.0 G Z 9 r G O 2 0 y F 2 2 ; t 5 2 8.*X&X>. .<.g.@./ ",
"O O - O o o O o 6 7 ; & 8 t G ) y r 1 % o % 1 G w F F 1 % 2 6 1 5 e 0 1 e @ X q D Z H H 1 % e w 9 4 t % % % + . O ' G Q E  .]  .q 5 6 o 8 y w r % o o e & 9 @.U.U.x.>.O.9 >.t ",
"e > > % % % O + % * , O 1 O O & 5 h h > % % & 6 2 0 8 3 2 8 ; o O O = u 5 % & 9 5 4 q 1 8 6 & @   . . . X X X o O O % O % o . o O X o % & o O o . o O : $ 4 w b 7 O % % & & X ",
") o.E % r _ C Z U._.h.I Z 5 1 I P.&.>.o.G % s.Q +.L.L.I L.-. .O r _ e.L.&.-.<.-.+.9 D g.X.b.*.Q ] 4 O 2 t ;.] { L.Y.|.R.' & y O. .}  .s.X.;.3 & ..a.>.L.S g.g.+.c 1 G <.).V.+.",
"5.5.>.@ C Z 0 I 9._ P 2 2 q 6 ;.O.Z H <.` % R.O.<.<.g.<.>.E  .X w h.P.o.1.I ~ Q.x.& ] 5.T >.e.H y y O E g.h.Q *.H { i.O.| % 0 0 ] -.~ e.U.~ a 1 I 6.t.Q S g.<.+.] 9 g.*.g.r.+.",
"I 5.q % D C 9 D C C C 2 9 D 6 K H Q I $.' y E.I O.+.<.) E e. .o <.P.E.L.O.<.U.g.& o V.T.q.U.-.H q.1.2 H ~.L.a.I.S.v y ] ; X G F D Z 3.$.6.E a 1 *.&.D a B.>.y E e q P.$.q.] ] ",
"H y ; O 9 e 2 e Z D Z 2 9 r 2 ) H F 1.e.j c y <.] I e.I Z.{ ` o <.t.:.E :.Q e.{ % % R. X<.I g.O.&.O.2 { k.t { v - % % 5 o X G D G E ) I O.C X.& :.$.o.Y.U.Q.0.g.G r >.A o.r..X",
"O * o X O X . O O O O & - O & 1 6 f 9 p O 8 & % o & 5 7 d & & O ..x > O h v m 7 X % p y e i 5 i g 5 o e O o X o @ & @ O o X 6 & 3 e c 6 7 3 2 O 9 g e y ^ c 8 e x 9 y E Z.S.p ",
"G 2 $ 2 r C A 9 e 2 1 % 2 D E X.D x v B.*.q 3 & c X.q c 6 & c E ] ] } a.' ; - t a { w T B M g 8 O & a +.V.' i.M q 2 % 8 g ' G G { M 7 o * m e ` E w i.Z.D.n.g & : ` ] B.i.T M ",
"y q % e e C Z 2 0 9 2 o P 0.$./.h.P.^.~. .9 t m x.e.g.g.q._.U.P.U.8.<.V.t 8 & _ 9.K Q -.g.~ G q o C g.d.g.W.Q 2 A A 1 &.&.' *.R.{ e l.6 C XX XY.L.P.E.1.L.q.H 1 V.L.D.' <.U.U.",
"9 y O r 2 F e e C 2 - % 9.~ e.&.I I |  .t 9 7 f / a.a q E >.3 y n t 7 % r 8 - Z Q Q ~ ~ $.9 & 9 o a {.L.i.' x G G 6 & ;.9.U.Q.Z.r ` X.% 0 ~ t.q.P.P.+.s.V.G y 2 <.L.s.L.I.L.).",
"I y % 2 1 % % 1 1 & O % o.Q @.I r 9 9 9 c H & 9 H t @ O % & O o % % : 8 r s 2 Q H q T W y w 2 t O Z.v t 7 8 t 7 O @ % C -.<.y 2 e 9 t 5 0 P.g.L.-.<.:.-.<.+.X.y L.Y.I.g.oX[.(.",
"e & % % & % ; & % X X & H 9 w 7 % t 9 w y 9 * 1 & * & 8 ] 6 q q ^ ] G D 7 X 2 q r T x o o + ; * O ..1 & X . . . @ X 1 G ' c & % 6 ^ q 1 0 H x  .I &.<.:.Q V.V.9 +.] a ` q 1 n ",
"N & 5 5 x 8 > % % & & 8 c 8 1 % O X X X O % 7 2 f * & & % O + o - o o X : k | x i = > ; O o X O 7 > o O X X . . X o 1 - O X X o O O O 3 Z C r 2 & & u = > & & % 2 % o O O o X ",
"e.<.q.e.o.:.r & C Z ] Q ] Q >.H F y & 9 $.~ ~ H ^ d 6 -.o.E H e.-.e - >.L.Y.t.V.g.^.V. . .j 5 _.<.+.H O.&.Q y O ` I.R.).U.<.P.L.} 3 i.[.e.9.o.R -.P.%X{ t a.}.R.Y.R.D.).|.[.x.",
"<.x.G w H Z 2 & S H H H $.S H Q G r 9 I s./ H e { 1 ^ / ` w D L.{ = & <.<.o.D s.h.E q w q = 4 q.$.e.-.K ~ I H O H /.*.e.L.-.V. . .O (.s.E.-.I.>.<.E.oX` 6 9.Q.h.P.8.h.). XU.c.",
"H q r D -.c 9 & C F Z H O.T r y 2 & 2 0 Q w w G | 2 2 y q ^ F :.p % & 1.E q.+.e.L.>.s.I.O.v r x.H H *.$.9.W.<.% } I.H E Z y 1 G r X ' X.b.x ` H V.V.9 r & ]. .4 V.L.|.s.i.R G ",
"= % & 6 2 o ; 2 C 0 9 +.I w / & & % 1 ;.F H  .G 1 o % 2 & y y 5 O O & ` ] { ] q & j ' 9 ` % ] y ] 2 q <.-.F 0 % I.K K 9 1 2 1 2 & . e ;.r ` ] o.+.<.<.8 O H e.<.V.V.t R H Y.] ",
"O o o O o % 1 2 1 2 % 1 & o o o O % & e 1 1 % & & O 1 0 0 2 & & & o - X X o 7 = 4 c 8 1 8 X & * % = v 5 % * % % 9 e 2 e 6 g 2 ; o o 1 O O % * c ..8 3 % & H ` } q 9 2 1 ` X.3 ",
"A &  .O.{ D F H +.G 2 9 6 2 9 ^ 1 0 r D C w t e 9 C D 0 D 0 0 C G 9 9 2 1 4 M F.S.] S...M.N.c z h V n n n X.n.X.c v v 1 % 1 4 1 6 3 a 4 4 i % 1 h l v 3 1 1 O o X - = > % O o ",
"e O w Z A I H F / C ; q D r F w w r v D 9 G G 2 C 2 0 S C Z 0 C F A H & 8 L.<..X@XI.q.R.L.L.R.4  .=.K &.e.e.+.;.-.&.H G 1 I Z <.q.>.L.E.q.*.2 q.8.O.E ).E g.=.g.x W P.~ <.s.a.",
"3 & C +.I <.8.H ] 5 O G G Z q 2 9 9 t 9 r 2 e % q T 9 & 5 6 1 6 w A y O y L.Q.P.] G <.).<.P.<.8 T -.' <.Q *.*.;.A 0 E A & <.H <.+.o.L.<.] p 1 V.>.I *.O.*.g.-.} 3 a t p T s.U.",
"& 1 F H ] H y c t & O G G r e 1 Z 0 2 w & % 1 1 T G 1 o o % & 6 r 1 % . y *.x.L.g.r.P.R.) e.1.7 *.~ <.+.<.<.+.c.o.w ~ T & x.X.q ] X.] ..<.7 8 *.G +.g.*.-.=.5.Q & D R ] A G q ",
"X 1 q 2 q 8 % O 3 8 : 9 O O o O 1 - + O O & O 1 & > 2 % > 6 1 3 2 q 1 . p  .g M b.q a.a.>.^ O.u G  . .;.H ] >.X.0 T S q 1 +.] 1 f e y i.p X & e >.X.` O.$.U.} ] % y a y O.G 4 ",
"= 8 8 - O o & 7 e e 4 & = u 4 v 3 7 O % 8 4 2 G 8 e 2 1 & * % % % % 6 7 1 1 - % O O 1 8 i 4 & % & % o % & > & * % % & = 2 h o o 1 a i 7 = & 4 i % % O % % o O o O 3 % h : O % ",
"I F F D 1 2 Z I P 7.3.f.d.I ~ e.H H & r -.r.+.>.d G E F C 1 9 K 3.w.~ 9.#.Z F ] 6 H 5.$.#.e.Q $.` G 9 2 2 ] Q +.e.W Q h.1.;.+./ 9 U E R } H S *.H ] R.+.p q ).Q.).G.<.H t ] E.",
"K H D 9 % 1 C G T =.2.K R H E O.] 0 % D w -.H y G 9 1 F C 1 0 K Z C C ) H C C 2 & E C 9 K U P 9 2 2 y & q h.h.y.W I Q ~ I @.L +.& 0 C Q D C H I.0.>.S *.1 T w.U.=.G ] H q K XX",
"0 8 2 2 O % I Q S 8.X.w 2 ] { 9 G r O 0 G H G H ] r S U Z & r I A 9 6 y 2 9 2 2 & A 0 r K K F % 1 t & 1 y Q ~ C G D E E w I 0 g % H I K L H H +.+.*.*.4 & R _.=.W $.g.h.8 C a.",
"& 2 - 1 O & Q T Q H ` } r :.T y ` - o D +.F F ] D G A Z 9 & A H 2 2 y 9 Z r 9 1 % 0 Z H K S 1 O t 9 y 2 D X.] A I G Q w w 2 9 5 & 0 w ] C H G {  .` D I 8 G -.*.I 1.] ` O H >.",
"O o X O O & 1 = > > o X O O . . o o % 2 2 2 4 4 1 q = 1 2 1 0 1 % & & & 1 O % O & 0 2 4 % o o X ; 2 1 1 9 c 3 % o o % : & % o - 1 1 & * * % % % 5 = p ` * e y 8 4 7 & O o e w ",
"H G r e G 0 9 1 1 t { >.G y y 5 9 R H ] A +.o.>.T % { >.F / } +.D 0 R w Z t & n G <.V.B.] y 1 1 X.G.Z.*. .(.D.Z.} G.i.x 2 2 T ] =.s.1.T <.p.{ G 1 & 3 5 8 w 9 c a y q 9 2 1 & ",
"2 9 0 G r 9 0 1 ; 9 H I T o.H c D &.;.g  .1.G D q & ] e.1.:.S C K Z K Z 0 q t s._ &.h.+.H E q t v.{.I.<.^.oX XL.P.E.<.e.H e Q 0 ~ T { ' +.$.) r 4 2 C 0 H 0 I U $.K Q R R A C ",
"& 2 r 0 0 9 r 1 & D / r 2 y r & } <.T y } H G c a O ] e.] 8 D 2 9 9 9 2 9 y 5 H A <.+.>.9 G 2 v .Xx.Q._._.L.Q <.g.$.Y.E.q 1 S ] 1.G ` A K =.W Q 1 1 S Q w I I I Q H S ] D T K ",
"1 2 ^ r & 1 & o & G 0 y y 9 f 6 G G 8 ] +.G L.E.' % +.D 9 r H C C O.H C 2 5 1 Q +.o.;.g q R  .N.^. XE.{.V. Xe.<.P.P.U.*.e ; U A >.o.o.0 C / G q o % r 0 9 0 q ^ C 9 G D r I A ",
"o o X - - O O + & D D 1 1 g t % 2 q >.s.{ / i.] e - T q y D D w 9 D E q y 2 & 5.+.H y ] ] { i q X.>.{ 2 b ....{ ` | v 4 2 6 ] y ` x.r 9 A D 1 o - & H w y q w y 2 2 w C w Q D ",
"  X o O X . X X - % O X & % % 2 2 p 7 & o . O o . o & . . X X o O 9 9 e & % & * O X o > O O & 1 6 1 ; % O O + O O O O @ o & & l & * O O O X X + O & 1 X - % & 3 1 O % % 3 7 > ",
"% 2 +.<.^ O.V.H y t + 1 :./ R.I.+. .f & o 8 { T r t q w A % % 7 D H H H S F 8.A 4 O 2 4 & = 9 q q b c q 1 R s.g.s.i.3 { L.R.R.R.p.a G 7 5 M u.D.}.D.a.t ` ] 1 <.U.-.*.G W a.{ ",
"& A h.P.q.L.P.e.+.q & C D o.I.=.E.Y.c.l.1 ~ P L I I U ] 0 9 % 1 H S S S A C K C 2 % K A S ~ I 9.S W Z { % O.5.H H >.2 V.R.[.y O.] V.+.t X.=X*X(.+X&Xa.-.3.0.1 ).Y.+.1.Q U I.D ",
"; V.t.$.q.`.W.~ D e 2 Q g.6.Q P./.+.9.y & +.I S C C S C r e % 1 H Q 8.A q w C r % ; F Z 0 F U A 9 2 Z G - r E q 2 0 2 ] ^.<.} <.L.s.T.X.n.C.e | | k.Q Q >.a 3 >.<.o.] ] O.F +.",
"n e.g.U e.P.q.9.w 1 r L I 5.$.g.=.o.<.c + I 2.S F Z D 9 6 1 O 1 I ~ 0 2 9 S 3.9 1 % 8.5.W ~ 0 w Z 9 r 0 + r 9 r ) W 1 C. XL.>.R.p >.<.` 9 ' X.R.>.G.I.4 & 2 % ] =.-.+.+.Q &.*.",
"2 +.y y  .0 X.e 4 ; c -.` x H E G 0 H & O C D t D y & % 6 1 O 2 Q Q y T D y 2 1 5 & C E p r r Z 2 0 ^ 1 % q A I I r & 8 6 c e { / X.V.m 6 +.I.B.8 b q w y & % ' } ;./ 0 G t w ",
"1 h $ 7 % X X X X o % O X O & % O O > X & & % * o o o X X o & 9 G 1 & 3 & % % 3 o & 2 % o o O O & y 1 e & 8 2 3 t & o 3 & % d 6 7 m * o 1 1 h = % 1 ; X X o & 1 5 o o O : o % ",
"^ 1 1 ) H +.Y.V.M G H e.q 6 O.z.>.' X.G r T -.G c & + & f  .] >.[.D. .{ M % 6 C.b. .m.B.A.b.c 1 | B.a.*.s.a.e % o O - t a a T p 1 2 ..(.(.|.I.I.s.+Xm.; n <.I.} <.+.g.s.A 0 1 ",
"t O & e ] q.g.~ H e I o.& q -.<.:.#.G 0 &.-.g.q.y o % Z.+XR.U.{.'.'.L.R e % Z L.I.L.V.E.R./ ` q Q.y.j.3.~ s.4 3 2 U h.h.7.3.$.Q & G  XR.R a >.e.x.I.{ - >._.U.$.Z -.f.~ I F 9 ",
"> o h L.P.T.s.] t G l.e O r ] / >.D y H H H +.0 % . = n.g.Y.]  XU.E.U.H e % E.U.*.g.U.L.Q ] y L.h.3.3.K & 2 w 3 9 P.!.~ 7.3.5.W & n.B.X.V.(.>.V.{.y c & I.I.U.s.H $.!.f.K 9 6 ",
"o X g T.V.r.>.y t y 1 8 > e o.G y G +.x.@.o.w 2 X . 2 X.P.-.E.x.:.>.+.X.O % L.1._._.L.>.*.V.C 2.f.~ Q 8 o 0 G 1 e 9.9.L 0.~ U S & t *.{.R.q.Y.c.G 4 1 1 <.XXI q.S ~ 0.W 2 1 w ",
"f o t q d 7 & 5 O 7 5 e % 5 g p g 1 y 8 9 & X O o O 0 [.+.o.>.T G o.M 3 X 1 e T ^ G ] X.{  .9 G 6 1 t + 6 J G O D Z D C { Z R S e 9 >./ V.V.{ X.` H } 2 I.L.] ] T <.S 9 5 e 5 ",
"- k 8 & O O X .   o O & 7 n 7 % o & - O O O O & 8 e f l & 2 8 ; : + # X o 2 r 1 % : O . X X o & O O X X + 9 & o 9 1 & & % % 1 0 & & & 7 h % O % % m h x x 5 & 5 % % 8 % O o o ",
"V.Y.V.] V.V.a.& o g >.<.<.R.V.D 1 e.<.A.X.L.q.R.{.E. XI.a.% } >.g.|.%XR.<.g.g.Q [.k - b K.[.}.^.L.=.T & & H =.W =.} *.] ] ` & p n Z.).|.I.s.).X.4 _._.{.G.).i...$X(.D.|.{.{.R.",
"]  .<. .=.-.r 6 o V.U.).*.L.>.x.9 P._.9.$.V.H R.P.R._.R.7 % q.5.P.{.s.a.$.3.-.W G - 1 ^.U.U.I.g.L.+.` o 1 &.Q H *.0 Z K U / % >.h.`.s.).&XU.s.n.1 ;.L.} H H 7 S. XR.E.Y..XOX@X",
"] ] o.<.<.T o.q O <.R.+.~ Q H ` + U. .O.-.+.^ L.E.A.<.G % 7 +X/.L.H -.-.9.d.a.9 0 - 1 U.-.O.-.P.-.r.t X 2 A 0 C t F S Z S 9 & G Q s.XXg.<.g.A.i.% G U.<.9.<.i K.~.V.R.O.'.'.(.",
"+.9 6 e & % & % O a.` 1 1 b { & * *.{ } G y <.<.] <.-.E % | E.^.V.H -.s.L.P.*.I.-.% & _.<.s.] A E H 2 o e ` y & % 1 & 9 r 1 & n.(.D.Z.a.*.w X.G - C.+XE 1.`.u.9 c & e q 4 = O ",
"# X X X . . O & 9 2 2 1 % % % O ; & $ & % & > 5 {  .t 6 O f ..& O & x ..r | | n = o 2 1 O O o % & 7 u u w 1 % * & 1 % > 5 & % t 6 1 & & O % 5 & 1 9 6 & 2 1 o 1 X X o o # : h ",
"t t 6 ; O e ] I U G 6 g 1 2 <.D.D e 9 ` 6 1 & % 1 [.V.>.>.I.<.B.; X.A.i.M 2 & 6 ..D.s.d.*.L.*.*.= s.I.U. X XL.E.Q 1 G -.*.] W C G S y 2 D ;.:.Q ] _ o.T R.+.C.H 2 2 0  X+X|.OX",
"2 F r ; & C 9 F r 1 y 3 : 2 +.o.A A 9.Q I #.9 % V.E.U.I O.L.U.z.1 <.P.L.<.G 1 <.e.-.-.h.Q.h.K q % E.w.U.XXE.U.I.a - D I L K Z F K I Z 5 G ` F ~ I U H I q.9.t.5.^._.e Q P.{.'.",
"w 9 w o & 9 9 A 0 A q & & 9 ] q.0.3.~ K Z E & O %.e.<.O.c.T.Y.9 2 E.>.E *.' 3 -.I h.h.g.8.-.Z 2 O *.C &XU.1.} Q t 1 _ I Z H H F C w H 2 Z H _ I H I ~ Q =.~ @.@.U ] 1 a..XV.V.",
"1 & 3 & & r Z 0 F w t & 5 2 <.U ~ I A I H F % % L.5.H <.s.).E  .1 <.H g.w.e % 1.g.y.h.s.h.5.K 1 3 t.h.U.' 0 s.h.z.1 _ H P H C G w 9 9 % E / H F D O.U H q.-.U <.+.r 2 +.D.3 T ",
"f 1 4 2 1 ) G F w t % 1 2 2 /  .D 0 H w 6 1 O 1 W.L.>.B.T ] ;.] % o.Q Q y O % V.h.L.W I.] T G & & A U.g.I.$.g.H c 6 G 0 9 3 2 0 & % % X D ` D ] ] E &.I H -.h.<.I q 9 } y G G ",
"& O % O 1 3 5 & O % - 5 & 1 q & & % & O o q o 1  . .w i q G 1 5 % 9 y c > X - g x f & f e & % X O q { u.{ n.k.r 3 % 2 e 2 & & O o O o O 6 & % 8 9 { ] 9 e 2 3 - 6 o 5 q y { a ",
"% K.k.V.z.z.X.s O p a q ' >.' y ; & 8 7 3 4 m B.u.v 3 % > + + 7 g | M k h z k.c d o & c N.c v M n.S.p.V l O X o O % 1 % o o X X X X o + % % + % o o + k h m M.H.J.J.R.(.*.y 2 ",
"7 Y./ o./ :. .O b U.8.L L L K  .& y q.-.o.Y.L.q.E.C.>.L.<.2 & o.L.q.T.<.z.V.R.<.D.o 0 E.E.g.<.P.E..XU.R.{ h 2 V.{.<.U.{. X).[.F.& >.U.I.(.s.+.E A.& E Q.`.^.oX@X+X.X X(.^ 6 9 ",
"8 ] t ] >.q f @ ] I Q L 3.L 0 w & G s.e.Q.P.V.:. ./ I c. .j 2 e.Y.] <.>.<. .B.<.B.O D  XY.P.q.K O.<. .r g g 1 e.I ) t..X=.X.y e % s.h..X9.h.-.$.>.1 K g.g.S c.<.OXz. .] { e 9 ",
"c a 9 { G ;.y X V.G H E @.K G G % <.T.T.<.o.-.+.D ^ o.+.o o 2 -.U.q._.R V.-.P.L.R.o y Y.#.:. .9.o.+.I H  .X.& =.!.h.e.+.c M V.^ & ] L.T F +.-.H ] & 0 @.I.E <.L.:.e H ]  .y 9 ",
"7 ] y H / w ` X G Z +.)  .A +.g o <.+.H &.c 0 H ] $.Y.] ^ 8 9 @.e.<.+.e.R..XL. XZ.O G 8.-.*.o.q.U.E.U.s.<.% O 9 y T O./ ;.{. .>.1 L.-.I <.&.I E V.& w e 2 ` Z.>. .+.+.P.>.B.% ",
"% O + 5 t t j o a.y H y R E ] O O ` r ;.2 e  .{ o.<.*.' g ; 2 G r ` ] >.` ' y ' g O C H G y ` x c z.+.' p O % r y 2 q ` Z.y c X.1 *.T w *.H P.{ 8 & A <. .g 7 f 3 = 2 8 > % o "
};
